<?xml version="1.0" encoding="utf-8"?>
<!-- Generator: Adobe Illustrator 16.0.0, SVG Export Plug-In . SVG Version: 6.00 Build 0)  -->
<!DOCTYPE svg PUBLIC "-//W3C//DTD SVG 1.1//EN" "http://www.w3.org/Graphics/SVG/1.1/DTD/svg11.dtd">
<svg version="1.1" xmlns="http://www.w3.org/2000/svg" xmlns:xlink="http://www.w3.org/1999/xlink" x="0px" y="0px"
	 width="1534.334px" height="376px" viewBox="0 0 1534.334 376" enable-background="new 0 0 1534.334 376" xml:space="preserve">
<g id="Black" display="none">
	<g display="inline">
		<g>
			<g>
				<path fill="#C1272D" d="M140.678,105.07c9.334,0,16.808,2.604,22.419,7.811c5.608,5.208,8.417,12.007,8.417,20.399
					c0,8.594-2.832,15.57-8.492,20.928c-5.661,5.359-13.108,8.038-22.345,8.038c-9.138,0-16.587-2.704-22.345-8.113
					c-5.76-5.407-8.64-12.36-8.64-20.853c0-8.392,2.853-15.191,8.566-20.399C123.968,107.675,131.44,105.07,140.678,105.07z
					 M140.678,214.758c9.334,0,16.857,2.608,22.568,7.812c5.709,5.209,8.565,12.007,8.565,20.395c0,8.499-2.856,15.425-8.565,20.782
					c-5.711,5.355-13.234,8.034-22.568,8.034c-9.138,0-16.587-2.704-22.345-8.109c-5.76-5.409-8.64-12.311-8.64-20.707
					c0-8.288,2.879-15.061,8.64-20.321C124.091,217.391,131.54,214.758,140.678,214.758z"/>
				<path fill="#C1272D" d="M268.854,188.265c7.649,4.994,12.933,10.815,15.854,17.444c2.918,6.625,4.379,18.035,4.379,34.245
					v22.269c0,10.231,0.835,16.654,2.512,19.293c1.674,2.632,4.847,4.411,9.521,5.344c1.118,0.296,2.795,0.597,5.028,0.895
					c11.473,1.687,17.213,7.194,17.213,16.522c0,4.569-1.668,8.237-5.005,11.021c-3.335,2.777-7.786,4.168-13.345,4.168
					c-7.079,0-13.929-1.157-20.551-3.468c-6.624-2.314-12.109-5.479-16.455-9.5c-4.754-4.326-8.114-9.908-10.084-16.739
					c-1.973-6.84-2.959-18.552-2.959-35.137v-17.964c0-18.195-8.394-28.661-25.174-31.389c-0.709-0.2-1.214-0.304-1.517-0.304
					c-4.853-0.813-8.445-2.549-10.77-5.204c-2.325-2.655-3.487-6.494-3.487-11.496c0-4.39,0.986-7.86,2.957-10.409
					c1.971-2.55,5.131-4.388,9.479-5.512c1.919-0.605,4.701-1.259,8.34-1.963c13.446-2.519,20.171-12.491,20.171-29.919v-17.979
					c0-15.442,0.759-26.263,2.273-32.472c1.519-6.205,4.097-11.629,7.737-16.275c4.245-5.146,9.933-9.156,17.06-12.033
					c7.128-2.876,14.99-4.315,23.583-4.315c5.359,0,9.656,1.392,12.893,4.171c3.233,2.78,4.853,6.444,4.853,10.995
					c0,9.505-6.145,15.218-18.43,17.137c-1.121,0.103-1.933,0.205-2.44,0.304c-5.077,0.806-8.582,2.644-10.511,5.516
					s-2.892,9.394-2.892,19.567v22.211c0,15.173-1.514,26.298-4.532,33.379C281.538,177.748,276.301,183.613,268.854,188.265z"/>
				<path fill="#C1272D" d="M373.248,98.261c0-1.575,0.549-2.934,1.646-4.077c1.1-1.141,2.394-1.713,3.887-1.713
					c3.529,0,7.826,1.949,12.888,5.849c5.064,3.898,10.498,9.474,16.305,16.72c8.867,11.108,15.537,22.805,20.011,35.096
					c4.471,12.287,6.709,25.09,6.709,38.401c0,14.589-2.708,28.612-8.121,42.081c-5.416,13.469-13.46,26.154-24.131,38.048
					c-4.553,5.039-8.908,8.927-13.065,11.643c-4.162,2.72-7.771,4.074-10.831,4.074c-1.414,0-2.649-0.529-3.708-1.591
					c-1.059-1.065-1.588-2.385-1.588-3.965c0-1.729,1.915-5.743,5.748-12.049c2.812-4.65,5-8.431,6.564-11.345
					c6.329-11.818,10.905-23.044,13.717-33.677c2.813-10.636,4.221-21.701,4.221-33.219c0-10.318-1.131-20.323-3.397-30.012
					c-2.27-9.689-5.746-19.339-10.437-28.951c-2.581-5.2-5.959-11.285-10.142-18.256C375.337,104.346,373.248,99.994,373.248,98.261
					z"/>
			</g>
		</g>
		<g>
			<path d="M612.136,169.335h-17.871l-2.471-15.977c-2.361-2.36-5.34-4.228-8.936-5.6c-3.597-1.372-7.838-2.059-12.724-2.059
				c-10.432,0-18.462,3.789-24.089,11.365c-5.628,7.577-8.441,17.459-8.441,29.648v4.2c0,12.188,2.8,22.1,8.4,29.731
				c5.6,7.632,13.506,11.447,23.719,11.447c4.721,0,9.045-0.686,12.971-2.059c3.925-1.372,6.959-3.239,9.101-5.601l2.471-15.978
				h17.871v23.719c-4.832,5.601-10.995,10.062-18.489,13.383c-7.495,3.322-15.882,4.982-25.16,4.982
				c-16.088,0-29.265-5.571-39.531-16.718c-10.268-11.146-15.4-25.448-15.4-42.908v-4.036c0-17.404,5.106-31.708,15.318-42.908
				c10.212-11.201,23.416-16.801,39.613-16.801c9.278,0,17.651,1.688,25.119,5.065c7.466,3.376,13.643,7.838,18.53,13.383V169.335z"
				/>
			<path d="M627.796,203.431c0-13.287,3.719-24.172,11.159-32.654c7.439-8.483,17.72-12.724,30.843-12.724
				c13.177,0,23.484,4.229,30.925,12.683c7.439,8.456,11.159,19.354,11.159,32.696v1.729c0,13.397-3.72,24.31-11.159,32.737
				c-7.44,8.428-17.694,12.641-30.76,12.641c-13.232,0-23.568-4.213-31.007-12.641c-7.44-8.428-11.159-19.34-11.159-32.737V203.431z
				 M651.845,205.16c0,8.126,1.427,14.646,4.282,19.56c2.854,4.914,7.466,7.371,13.836,7.371c6.204,0,10.748-2.471,13.63-7.412
				c2.883-4.941,4.324-11.447,4.324-19.519v-1.729c0-7.906-1.455-14.357-4.365-19.354c-2.911-4.995-7.495-7.494-13.753-7.494
				c-6.259,0-10.817,2.499-13.671,7.494c-2.855,4.997-4.282,11.448-4.282,19.354V205.16z"/>
			<path d="M784.369,237.938c-2.8,4.117-6.108,7.247-9.924,9.389c-3.817,2.141-8.167,3.211-13.054,3.211
				c-10.981,0-19.505-4.007-25.572-12.023c-6.067-8.016-9.1-18.613-9.1-31.789v-1.73c0-14.054,3.047-25.393,9.142-34.013
				c6.094-8.619,14.659-12.93,25.695-12.93c4.447,0,8.455,0.975,12.024,2.923c3.568,1.95,6.698,4.708,9.389,8.277v-31.954
				l-12.848-2.471v-14.495h12.848h24.048v111.593l11.53,2.471v14.413h-32.366L784.369,237.938z M750.768,206.726
				c0,7.797,1.304,13.932,3.912,18.406c2.607,4.475,6.876,6.712,12.806,6.712c3.513,0,6.561-0.713,9.142-2.142
				c2.58-1.427,4.694-3.486,6.342-6.177v-37.801c-1.647-2.854-3.748-5.065-6.3-6.63c-2.553-1.565-5.559-2.347-9.018-2.347
				c-5.876,0-10.158,2.608-12.848,7.824c-2.691,5.217-4.036,12.024-4.036,20.424V206.726z"/>
			<path d="M886.999,248.81c-0.66-1.482-1.236-3.006-1.73-4.571s-0.879-3.143-1.152-4.735c-2.855,3.294-6.33,5.958-10.418,7.988
				c-4.092,2.031-8.771,3.047-14.042,3.047c-8.73,0-15.662-2.373-20.795-7.123c-5.135-4.748-7.701-11.214-7.701-19.396
				c0-8.345,3.349-14.796,10.048-19.354c6.698-4.557,16.525-6.835,29.484-6.835h12.27v-8.73c0-4.283-1.234-7.604-3.705-9.965
				c-2.471-2.36-6.123-3.541-10.953-3.541c-2.746,0-5.189,0.316-7.331,0.947c-2.141,0.632-3.871,1.387-5.188,2.265l-1.565,9.553
				h-18.119l0.083-19.766c4.392-2.965,9.43-5.462,15.112-7.495c5.683-2.03,11.873-3.047,18.572-3.047
				c11.035,0,19.998,2.705,26.889,8.112c6.891,5.409,10.336,13.109,10.336,23.101v36.814c0,1.373,0.014,2.663,0.041,3.87
				c0.027,1.208,0.123,2.361,0.289,3.459l7.33,0.988v14.413H886.999z M866.161,232.749c3.625,0,6.918-0.781,9.883-2.347
				s5.271-3.527,6.918-5.889v-13.589h-12.27c-5.107,0-8.979,1.194-11.613,3.583c-2.635,2.388-3.953,5.258-3.953,8.606
				c0,3.02,0.974,5.381,2.924,7.082C859.998,231.899,862.702,232.749,866.161,232.749z"/>
			<path d="M926.211,234.396l11.612-2.471v-55.261l-12.848-2.471v-14.495h36.896v72.227l11.53,2.471v14.413h-47.19V234.396z
				 M961.872,138.369h-24.048v-18.036h24.048V138.369z"/>
			<path d="M1058.078,190.336h-16.142l-2.553-11.118c-1.647-1.318-3.721-2.416-6.219-3.294c-2.499-0.877-5.258-1.317-8.276-1.317
				c-4.229,0-7.577,0.947-10.048,2.841c-2.471,1.894-3.706,4.27-3.706,7.124c0,2.691,1.181,4.929,3.542,6.712
				c2.359,1.785,7.082,3.364,14.165,4.735c11.036,2.197,19.216,5.423,24.542,9.677c5.325,4.256,7.988,10.117,7.988,17.583
				c0,8.018-3.445,14.564-10.335,19.643c-6.892,5.078-15.965,7.617-27.219,7.617c-6.864,0-13.165-1.002-18.901-3.006
				c-5.738-2.004-10.83-4.871-15.277-8.605l-0.247-20.014h16.801l3.295,11.613c1.427,1.208,3.376,2.1,5.847,2.676
				s5.051,0.865,7.742,0.865c4.886,0,8.605-0.878,11.159-2.636c2.553-1.757,3.829-4.145,3.829-7.165c0-2.635-1.29-4.913-3.87-6.836
				c-2.582-1.921-7.33-3.623-14.248-5.105c-10.487-2.141-18.407-5.312-23.76-9.512c-5.354-4.2-8.03-9.924-8.03-17.171
				c0-7.466,3.074-13.904,9.225-19.312c6.148-5.407,14.906-8.112,26.271-8.112c6.918,0,13.465,0.934,19.642,2.8
				c6.177,1.867,11.021,4.255,14.536,7.165L1058.078,190.336z"/>
			<path d="M1148.929,190.336h-16.142l-2.553-11.118c-1.647-1.318-3.721-2.416-6.219-3.294c-2.499-0.877-5.258-1.317-8.276-1.317
				c-4.229,0-7.577,0.947-10.048,2.841c-2.471,1.894-3.706,4.27-3.706,7.124c0,2.691,1.181,4.929,3.542,6.712
				c2.359,1.785,7.082,3.364,14.165,4.735c11.036,2.197,19.216,5.423,24.542,9.677c5.325,4.256,7.988,10.117,7.988,17.583
				c0,8.018-3.445,14.564-10.335,19.643c-6.892,5.078-15.965,7.617-27.219,7.617c-6.864,0-13.165-1.002-18.901-3.006
				c-5.738-2.004-10.83-4.871-15.277-8.605l-0.247-20.014h16.801l3.295,11.613c1.427,1.208,3.376,2.1,5.847,2.676
				s5.051,0.865,7.742,0.865c4.886,0,8.605-0.878,11.159-2.636c2.553-1.757,3.829-4.145,3.829-7.165c0-2.635-1.29-4.913-3.87-6.836
				c-2.582-1.921-7.33-3.623-14.248-5.105c-10.487-2.141-18.407-5.312-23.76-9.512c-5.354-4.2-8.03-9.924-8.03-17.171
				c0-7.466,3.074-13.904,9.225-19.312c6.148-5.407,14.906-8.112,26.271-8.112c6.918,0,13.465,0.934,19.642,2.8
				c6.177,1.867,11.021,4.255,14.536,7.165L1148.929,190.336z"/>
			<path d="M1209.721,250.538c-12.848,0-23.115-4.117-30.802-12.354c-7.688-8.235-11.53-18.694-11.53-31.377v-3.295
				c0-13.231,3.637-24.13,10.912-32.695c7.274-8.565,17.034-12.819,29.278-12.765c12.024,0,21.357,3.624,28.001,10.871
				c6.643,7.247,9.965,17.048,9.965,29.401v13.094h-53.202l-0.164,0.494c0.438,5.876,2.4,10.707,5.888,14.495
				c3.486,3.788,8.222,5.683,14.207,5.683c5.325,0,9.745-0.535,13.26-1.605c3.513-1.071,7.356-2.76,11.529-5.065l6.506,14.824
				c-3.679,2.911-8.441,5.353-14.288,7.329C1223.433,249.55,1216.913,250.538,1209.721,250.538z M1207.58,176.583
				c-4.447,0-7.962,1.702-10.542,5.106c-2.581,3.405-4.173,7.879-4.776,13.424l0.247,0.412h29.483v-2.141
				c0-5.106-1.194-9.183-3.582-12.23C1216.021,178.106,1212.411,176.583,1207.58,176.583z"/>
			<path d="M1323.303,237.526c-2.855,4.173-6.383,7.385-10.583,9.636s-8.99,3.376-14.371,3.376c-9.389,0-16.746-3.006-22.071-9.018
				c-5.326-6.012-7.988-15.359-7.988-28.043v-36.813l-9.801-2.471v-14.495h9.801h24.048v53.944c0,6.479,1.083,11.131,3.253,13.959
				c2.168,2.828,5.395,4.241,9.677,4.241c3.789,0,7.068-0.618,9.842-1.853c2.771-1.236,5.037-3.007,6.795-5.312v-48.014
				l-10.542-2.471v-14.495h10.542h24.048v72.227l10.788,2.471v14.413h-31.872L1323.303,237.526z"/>
			<path d="M1372.071,234.396l11.53-2.471v-55.261l-12.766-2.471v-14.495h35.167l1.07,13.012c2.086-4.612,4.776-8.207,8.071-10.789
				c3.294-2.58,7.109-3.871,11.447-3.871c1.263,0,2.594,0.096,3.994,0.288c1.4,0.193,2.565,0.426,3.5,0.7l-2.553,21.907
				l-9.883-0.247c-3.515,0-6.424,0.687-8.729,2.059c-2.307,1.373-4.064,3.322-5.271,5.847v43.319l11.53,2.471v14.413h-47.108
				V234.396z"/>
		</g>
	</g>
</g>
<g id="White">
	<g>
		<g>
			<g>
				<path fill="#FFFFFF" d="M140.678,105.07c9.334,0,16.808,2.604,22.419,7.811c5.608,5.208,8.417,12.007,8.417,20.399
					c0,8.594-2.832,15.57-8.492,20.928c-5.661,5.359-13.108,8.038-22.345,8.038c-9.138,0-16.587-2.704-22.345-8.113
					c-5.76-5.407-8.64-12.36-8.64-20.853c0-8.392,2.853-15.191,8.566-20.399C123.968,107.675,131.44,105.07,140.678,105.07z
					 M140.678,214.758c9.334,0,16.857,2.608,22.568,7.812c5.709,5.209,8.565,12.007,8.565,20.395c0,8.499-2.856,15.425-8.565,20.782
					c-5.711,5.355-13.234,8.034-22.568,8.034c-9.138,0-16.587-2.704-22.345-8.109c-5.76-5.409-8.64-12.311-8.64-20.707
					c0-8.288,2.879-15.061,8.64-20.321C124.091,217.391,131.54,214.758,140.678,214.758z"/>
				<path fill="#FFFFFF" d="M268.854,188.265c7.649,4.994,12.933,10.815,15.854,17.444c2.918,6.625,4.379,18.035,4.379,34.245
					v22.269c0,10.231,0.835,16.654,2.512,19.293c1.674,2.632,4.847,4.411,9.521,5.344c1.118,0.296,2.795,0.597,5.028,0.895
					c11.473,1.687,17.213,7.194,17.213,16.522c0,4.569-1.668,8.237-5.005,11.021c-3.335,2.777-7.786,4.168-13.345,4.168
					c-7.079,0-13.929-1.157-20.551-3.468c-6.624-2.314-12.109-5.479-16.455-9.5c-4.754-4.326-8.114-9.908-10.084-16.739
					c-1.973-6.84-2.959-18.552-2.959-35.137v-17.964c0-18.195-8.394-28.661-25.174-31.389c-0.709-0.2-1.214-0.304-1.517-0.304
					c-4.853-0.813-8.445-2.549-10.77-5.204c-2.325-2.655-3.487-6.494-3.487-11.496c0-4.39,0.986-7.86,2.957-10.409
					c1.971-2.55,5.131-4.388,9.479-5.512c1.919-0.605,4.701-1.259,8.34-1.963c13.446-2.519,20.171-12.491,20.171-29.919v-17.979
					c0-15.442,0.759-26.263,2.273-32.472c1.519-6.205,4.097-11.629,7.737-16.275c4.245-5.146,9.933-9.156,17.06-12.033
					c7.128-2.876,14.99-4.315,23.583-4.315c5.359,0,9.656,1.392,12.893,4.171c3.233,2.78,4.853,6.444,4.853,10.995
					c0,9.505-6.145,15.218-18.43,17.137c-1.121,0.103-1.933,0.205-2.44,0.304c-5.077,0.806-8.582,2.644-10.511,5.516
					s-2.892,9.394-2.892,19.567v22.211c0,15.173-1.514,26.298-4.532,33.379C281.538,177.748,276.301,183.613,268.854,188.265z"/>
				<path fill="#FFFFFF" d="M373.248,98.261c0-1.575,0.549-2.934,1.646-4.077c1.1-1.141,2.394-1.713,3.887-1.713
					c3.529,0,7.826,1.949,12.888,5.849c5.064,3.898,10.498,9.474,16.305,16.72c8.867,11.108,15.537,22.805,20.011,35.096
					c4.471,12.287,6.709,25.09,6.709,38.401c0,14.589-2.708,28.612-8.121,42.081c-5.416,13.469-13.46,26.154-24.131,38.048
					c-4.553,5.039-8.908,8.927-13.065,11.643c-4.162,2.72-7.771,4.074-10.831,4.074c-1.414,0-2.649-0.529-3.708-1.591
					c-1.059-1.065-1.588-2.385-1.588-3.965c0-1.729,1.915-5.743,5.748-12.049c2.812-4.65,5-8.431,6.564-11.345
					c6.329-11.818,10.905-23.044,13.717-33.677c2.813-10.636,4.221-21.701,4.221-33.219c0-10.318-1.131-20.323-3.397-30.012
					c-2.27-9.689-5.746-19.339-10.437-28.951c-2.581-5.2-5.959-11.285-10.142-18.256C375.337,104.346,373.248,99.994,373.248,98.261
					z"/>
			</g>
		</g>
		<g>
			<path fill="#FFFFFF" d="M612.136,169.335h-17.871l-2.471-15.977c-2.361-2.36-5.34-4.228-8.936-5.6
				c-3.597-1.372-7.838-2.059-12.724-2.059c-10.432,0-18.462,3.789-24.089,11.365c-5.628,7.577-8.441,17.459-8.441,29.648v4.2
				c0,12.188,2.8,22.1,8.4,29.731c5.6,7.632,13.506,11.447,23.719,11.447c4.721,0,9.045-0.686,12.971-2.059
				c3.925-1.372,6.959-3.239,9.101-5.601l2.471-15.978h17.871v23.719c-4.832,5.601-10.995,10.062-18.489,13.383
				c-7.495,3.322-15.882,4.982-25.16,4.982c-16.088,0-29.265-5.571-39.531-16.718c-10.268-11.146-15.4-25.448-15.4-42.908v-4.036
				c0-17.404,5.106-31.708,15.318-42.908c10.212-11.201,23.416-16.801,39.613-16.801c9.278,0,17.651,1.688,25.119,5.065
				c7.466,3.376,13.643,7.838,18.53,13.383V169.335z"/>
			<path fill="#FFFFFF" d="M627.796,203.431c0-13.287,3.719-24.172,11.159-32.654c7.439-8.483,17.72-12.724,30.843-12.724
				c13.177,0,23.484,4.229,30.925,12.683c7.439,8.456,11.159,19.354,11.159,32.696v1.729c0,13.397-3.72,24.31-11.159,32.737
				c-7.44,8.428-17.694,12.641-30.76,12.641c-13.232,0-23.568-4.213-31.007-12.641c-7.44-8.428-11.159-19.34-11.159-32.737V203.431z
				 M651.845,205.16c0,8.126,1.427,14.646,4.282,19.56c2.854,4.914,7.466,7.371,13.836,7.371c6.204,0,10.748-2.471,13.63-7.412
				c2.883-4.941,4.324-11.447,4.324-19.519v-1.729c0-7.906-1.455-14.357-4.365-19.354c-2.911-4.995-7.495-7.494-13.753-7.494
				c-6.259,0-10.817,2.499-13.671,7.494c-2.855,4.997-4.282,11.448-4.282,19.354V205.16z"/>
			<path fill="#FFFFFF" d="M784.369,237.938c-2.8,4.117-6.108,7.247-9.924,9.389c-3.817,2.141-8.167,3.211-13.054,3.211
				c-10.981,0-19.505-4.007-25.572-12.023c-6.067-8.016-9.1-18.613-9.1-31.789v-1.73c0-14.054,3.047-25.393,9.142-34.013
				c6.094-8.619,14.659-12.93,25.695-12.93c4.447,0,8.455,0.975,12.024,2.923c3.568,1.95,6.698,4.708,9.389,8.277v-31.954
				l-12.848-2.471v-14.495h12.848h24.048v111.593l11.53,2.471v14.413h-32.366L784.369,237.938z M750.768,206.726
				c0,7.797,1.304,13.932,3.912,18.406c2.607,4.475,6.876,6.712,12.806,6.712c3.513,0,6.561-0.713,9.142-2.142
				c2.58-1.427,4.694-3.486,6.342-6.177v-37.801c-1.647-2.854-3.748-5.065-6.3-6.63c-2.553-1.565-5.559-2.347-9.018-2.347
				c-5.876,0-10.158,2.608-12.848,7.824c-2.691,5.217-4.036,12.024-4.036,20.424V206.726z"/>
			<path fill="#FFFFFF" d="M886.999,248.81c-0.66-1.482-1.236-3.006-1.73-4.571s-0.879-3.143-1.152-4.735
				c-2.855,3.294-6.33,5.958-10.418,7.988c-4.092,2.031-8.771,3.047-14.042,3.047c-8.73,0-15.662-2.373-20.795-7.123
				c-5.135-4.748-7.701-11.214-7.701-19.396c0-8.345,3.349-14.796,10.048-19.354c6.698-4.557,16.525-6.835,29.484-6.835h12.27v-8.73
				c0-4.283-1.234-7.604-3.705-9.965c-2.471-2.36-6.123-3.541-10.953-3.541c-2.746,0-5.189,0.316-7.331,0.947
				c-2.141,0.632-3.871,1.387-5.188,2.265l-1.565,9.553h-18.119l0.083-19.766c4.392-2.965,9.43-5.462,15.112-7.495
				c5.683-2.03,11.873-3.047,18.572-3.047c11.035,0,19.998,2.705,26.889,8.112c6.891,5.409,10.336,13.109,10.336,23.101v36.814
				c0,1.373,0.014,2.663,0.041,3.87c0.027,1.208,0.123,2.361,0.289,3.459l7.33,0.988v14.413H886.999z M866.161,232.749
				c3.625,0,6.918-0.781,9.883-2.347s5.271-3.527,6.918-5.889v-13.589h-12.27c-5.107,0-8.979,1.194-11.613,3.583
				c-2.635,2.388-3.953,5.258-3.953,8.606c0,3.02,0.974,5.381,2.924,7.082C859.998,231.899,862.702,232.749,866.161,232.749z"/>
			<path fill="#FFFFFF" d="M926.211,234.396l11.612-2.471v-55.261l-12.848-2.471v-14.495h36.896v72.227l11.53,2.471v14.413h-47.19
				V234.396z M961.872,138.369h-24.048v-18.036h24.048V138.369z"/>
			<path fill="#FFFFFF" d="M1058.078,190.336h-16.142l-2.553-11.118c-1.647-1.318-3.721-2.416-6.219-3.294
				c-2.499-0.877-5.258-1.317-8.276-1.317c-4.229,0-7.577,0.947-10.048,2.841c-2.471,1.894-3.706,4.27-3.706,7.124
				c0,2.691,1.181,4.929,3.542,6.712c2.359,1.785,7.082,3.364,14.165,4.735c11.036,2.197,19.216,5.423,24.542,9.677
				c5.325,4.256,7.988,10.117,7.988,17.583c0,8.018-3.445,14.564-10.335,19.643c-6.892,5.078-15.965,7.617-27.219,7.617
				c-6.864,0-13.165-1.002-18.901-3.006c-5.738-2.004-10.83-4.871-15.277-8.605l-0.247-20.014h16.801l3.295,11.613
				c1.427,1.208,3.376,2.1,5.847,2.676s5.051,0.865,7.742,0.865c4.886,0,8.605-0.878,11.159-2.636
				c2.553-1.757,3.829-4.145,3.829-7.165c0-2.635-1.29-4.913-3.87-6.836c-2.582-1.921-7.33-3.623-14.248-5.105
				c-10.487-2.141-18.407-5.312-23.76-9.512c-5.354-4.2-8.03-9.924-8.03-17.171c0-7.466,3.074-13.904,9.225-19.312
				c6.148-5.407,14.906-8.112,26.271-8.112c6.918,0,13.465,0.934,19.642,2.8c6.177,1.867,11.021,4.255,14.536,7.165
				L1058.078,190.336z"/>
			<path fill="#FFFFFF" d="M1148.929,190.336h-16.142l-2.553-11.118c-1.647-1.318-3.721-2.416-6.219-3.294
				c-2.499-0.877-5.258-1.317-8.276-1.317c-4.229,0-7.577,0.947-10.048,2.841c-2.471,1.894-3.706,4.27-3.706,7.124
				c0,2.691,1.181,4.929,3.542,6.712c2.359,1.785,7.082,3.364,14.165,4.735c11.036,2.197,19.216,5.423,24.542,9.677
				c5.325,4.256,7.988,10.117,7.988,17.583c0,8.018-3.445,14.564-10.335,19.643c-6.892,5.078-15.965,7.617-27.219,7.617
				c-6.864,0-13.165-1.002-18.901-3.006c-5.738-2.004-10.83-4.871-15.277-8.605l-0.247-20.014h16.801l3.295,11.613
				c1.427,1.208,3.376,2.1,5.847,2.676s5.051,0.865,7.742,0.865c4.886,0,8.605-0.878,11.159-2.636
				c2.553-1.757,3.829-4.145,3.829-7.165c0-2.635-1.29-4.913-3.87-6.836c-2.582-1.921-7.33-3.623-14.248-5.105
				c-10.487-2.141-18.407-5.312-23.76-9.512c-5.354-4.2-8.03-9.924-8.03-17.171c0-7.466,3.074-13.904,9.225-19.312
				c6.148-5.407,14.906-8.112,26.271-8.112c6.918,0,13.465,0.934,19.642,2.8c6.177,1.867,11.021,4.255,14.536,7.165
				L1148.929,190.336z"/>
			<path fill="#FFFFFF" d="M1209.721,250.538c-12.848,0-23.115-4.117-30.802-12.354c-7.688-8.235-11.53-18.694-11.53-31.377v-3.295
				c0-13.231,3.637-24.13,10.912-32.695c7.274-8.565,17.034-12.819,29.278-12.765c12.024,0,21.357,3.624,28.001,10.871
				c6.643,7.247,9.965,17.048,9.965,29.401v13.094h-53.202l-0.164,0.494c0.438,5.876,2.4,10.707,5.888,14.495
				c3.486,3.788,8.222,5.683,14.207,5.683c5.325,0,9.745-0.535,13.26-1.605c3.513-1.071,7.356-2.76,11.529-5.065l6.506,14.824
				c-3.679,2.911-8.441,5.353-14.288,7.329C1223.433,249.55,1216.913,250.538,1209.721,250.538z M1207.58,176.583
				c-4.447,0-7.962,1.702-10.542,5.106c-2.581,3.405-4.173,7.879-4.776,13.424l0.247,0.412h29.483v-2.141
				c0-5.106-1.194-9.183-3.582-12.23C1216.021,178.106,1212.411,176.583,1207.58,176.583z"/>
			<path fill="#FFFFFF" d="M1323.303,237.526c-2.855,4.173-6.383,7.385-10.583,9.636s-8.99,3.376-14.371,3.376
				c-9.389,0-16.746-3.006-22.071-9.018c-5.326-6.012-7.988-15.359-7.988-28.043v-36.813l-9.801-2.471v-14.495h9.801h24.048v53.944
				c0,6.479,1.083,11.131,3.253,13.959c2.168,2.828,5.395,4.241,9.677,4.241c3.789,0,7.068-0.618,9.842-1.853
				c2.771-1.236,5.037-3.007,6.795-5.312v-48.014l-10.542-2.471v-14.495h10.542h24.048v72.227l10.788,2.471v14.413h-31.872
				L1323.303,237.526z"/>
			<path fill="#FFFFFF" d="M1372.071,234.396l11.53-2.471v-55.261l-12.766-2.471v-14.495h35.167l1.07,13.012
				c2.086-4.612,4.776-8.207,8.071-10.789c3.294-2.58,7.109-3.871,11.447-3.871c1.263,0,2.594,0.096,3.994,0.288
				c1.4,0.193,2.565,0.426,3.5,0.7l-2.553,21.907l-9.883-0.247c-3.515,0-6.424,0.687-8.729,2.059
				c-2.307,1.373-4.064,3.322-5.271,5.847v43.319l11.53,2.471v14.413h-47.108V234.396z"/>
		</g>
	</g>
</g>
<g id="Layer_2" display="none">
	<g display="inline">
		<g>
			<g>
				<path fill="#C1272D" d="M140.678,105.07c9.334,0,16.808,2.604,22.419,7.811c5.608,5.208,8.417,12.007,8.417,20.399
					c0,8.594-2.832,15.57-8.492,20.928c-5.661,5.359-13.108,8.038-22.345,8.038c-9.138,0-16.587-2.704-22.345-8.113
					c-5.76-5.407-8.64-12.36-8.64-20.853c0-8.392,2.853-15.191,8.566-20.399C123.968,107.675,131.44,105.07,140.678,105.07z
					 M140.678,214.758c9.334,0,16.857,2.608,22.568,7.812c5.709,5.209,8.565,12.007,8.565,20.395c0,8.499-2.856,15.425-8.565,20.782
					c-5.711,5.355-13.234,8.034-22.568,8.034c-9.138,0-16.587-2.704-22.345-8.109c-5.76-5.409-8.64-12.311-8.64-20.707
					c0-8.288,2.879-15.061,8.64-20.321C124.091,217.391,131.54,214.758,140.678,214.758z"/>
				<path fill="#C1272D" d="M268.854,188.265c7.649,4.994,12.933,10.815,15.854,17.444c2.918,6.625,4.379,18.035,4.379,34.245
					v22.269c0,10.231,0.835,16.654,2.512,19.293c1.674,2.632,4.847,4.411,9.521,5.344c1.118,0.296,2.795,0.597,5.028,0.895
					c11.473,1.687,17.213,7.194,17.213,16.522c0,4.569-1.668,8.237-5.005,11.021c-3.335,2.777-7.786,4.168-13.345,4.168
					c-7.079,0-13.929-1.157-20.551-3.468c-6.624-2.314-12.109-5.479-16.455-9.5c-4.754-4.326-8.114-9.908-10.084-16.739
					c-1.973-6.84-2.959-18.552-2.959-35.137v-17.964c0-18.195-8.394-28.661-25.174-31.389c-0.709-0.2-1.214-0.304-1.517-0.304
					c-4.853-0.813-8.445-2.549-10.77-5.204c-2.325-2.655-3.487-6.494-3.487-11.496c0-4.39,0.986-7.86,2.957-10.409
					c1.971-2.55,5.131-4.388,9.479-5.512c1.919-0.605,4.701-1.259,8.34-1.963c13.446-2.519,20.171-12.491,20.171-29.919v-17.979
					c0-15.442,0.759-26.263,2.273-32.472c1.519-6.205,4.097-11.629,7.737-16.275c4.245-5.146,9.933-9.156,17.06-12.033
					c7.128-2.876,14.99-4.315,23.583-4.315c5.359,0,9.656,1.392,12.893,4.171c3.233,2.78,4.853,6.444,4.853,10.995
					c0,9.505-6.145,15.218-18.43,17.137c-1.121,0.103-1.933,0.205-2.44,0.304c-5.077,0.806-8.582,2.644-10.511,5.516
					s-2.892,9.394-2.892,19.567v22.211c0,15.173-1.514,26.298-4.532,33.379C281.538,177.748,276.301,183.613,268.854,188.265z"/>
				<path fill="#C1272D" d="M373.248,98.261c0-1.575,0.549-2.934,1.646-4.077c1.1-1.141,2.394-1.713,3.887-1.713
					c3.529,0,7.826,1.949,12.888,5.849c5.064,3.898,10.498,9.474,16.305,16.72c8.867,11.108,15.537,22.805,20.011,35.096
					c4.471,12.287,6.709,25.09,6.709,38.401c0,14.589-2.708,28.612-8.121,42.081c-5.416,13.469-13.46,26.154-24.131,38.048
					c-4.553,5.039-8.908,8.927-13.065,11.643c-4.162,2.72-7.771,4.074-10.831,4.074c-1.414,0-2.649-0.529-3.708-1.591
					c-1.059-1.065-1.588-2.385-1.588-3.965c0-1.729,1.915-5.743,5.748-12.049c2.812-4.65,5-8.431,6.564-11.345
					c6.329-11.818,10.905-23.044,13.717-33.677c2.813-10.636,4.221-21.701,4.221-33.219c0-10.318-1.131-20.323-3.397-30.012
					c-2.27-9.689-5.746-19.339-10.437-28.951c-2.581-5.2-5.959-11.285-10.142-18.256C375.337,104.346,373.248,99.994,373.248,98.261
					z"/>
			</g>
		</g>
		<g>
			<path fill="#FFFFFF" d="M612.136,169.335h-17.871l-2.471-15.977c-2.361-2.36-5.34-4.228-8.936-5.6
				c-3.597-1.372-7.838-2.059-12.724-2.059c-10.432,0-18.462,3.789-24.089,11.365c-5.628,7.577-8.441,17.459-8.441,29.648v4.2
				c0,12.188,2.8,22.1,8.4,29.731c5.6,7.632,13.506,11.447,23.719,11.447c4.721,0,9.045-0.686,12.971-2.059
				c3.925-1.372,6.959-3.239,9.101-5.601l2.471-15.978h17.871v23.719c-4.832,5.601-10.995,10.062-18.489,13.383
				c-7.495,3.322-15.882,4.982-25.16,4.982c-16.088,0-29.265-5.571-39.531-16.718c-10.268-11.146-15.4-25.448-15.4-42.908v-4.036
				c0-17.404,5.106-31.708,15.318-42.908c10.212-11.201,23.416-16.801,39.613-16.801c9.278,0,17.651,1.688,25.119,5.065
				c7.466,3.376,13.643,7.838,18.53,13.383V169.335z"/>
			<path fill="#FFFFFF" d="M627.796,203.431c0-13.287,3.719-24.172,11.159-32.654c7.439-8.483,17.72-12.724,30.843-12.724
				c13.177,0,23.484,4.229,30.925,12.683c7.439,8.456,11.159,19.354,11.159,32.696v1.729c0,13.397-3.72,24.31-11.159,32.737
				c-7.44,8.428-17.694,12.641-30.76,12.641c-13.232,0-23.568-4.213-31.007-12.641c-7.44-8.428-11.159-19.34-11.159-32.737V203.431z
				 M651.845,205.16c0,8.126,1.427,14.646,4.282,19.56c2.854,4.914,7.466,7.371,13.836,7.371c6.204,0,10.748-2.471,13.63-7.412
				c2.883-4.941,4.324-11.447,4.324-19.519v-1.729c0-7.906-1.455-14.357-4.365-19.354c-2.911-4.995-7.495-7.494-13.753-7.494
				c-6.259,0-10.817,2.499-13.671,7.494c-2.855,4.997-4.282,11.448-4.282,19.354V205.16z"/>
			<path fill="#FFFFFF" d="M784.369,237.938c-2.8,4.117-6.108,7.247-9.924,9.389c-3.817,2.141-8.167,3.211-13.054,3.211
				c-10.981,0-19.505-4.007-25.572-12.023c-6.067-8.016-9.1-18.613-9.1-31.789v-1.73c0-14.054,3.047-25.393,9.142-34.013
				c6.094-8.619,14.659-12.93,25.695-12.93c4.447,0,8.455,0.975,12.024,2.923c3.568,1.95,6.698,4.708,9.389,8.277v-31.954
				l-12.848-2.471v-14.495h12.848h24.048v111.593l11.53,2.471v14.413h-32.366L784.369,237.938z M750.768,206.726
				c0,7.797,1.304,13.932,3.912,18.406c2.607,4.475,6.876,6.712,12.806,6.712c3.513,0,6.561-0.713,9.142-2.142
				c2.58-1.427,4.694-3.486,6.342-6.177v-37.801c-1.647-2.854-3.748-5.065-6.3-6.63c-2.553-1.565-5.559-2.347-9.018-2.347
				c-5.876,0-10.158,2.608-12.848,7.824c-2.691,5.217-4.036,12.024-4.036,20.424V206.726z"/>
			<path fill="#FFFFFF" d="M886.999,248.81c-0.66-1.482-1.236-3.006-1.73-4.571s-0.879-3.143-1.152-4.735
				c-2.855,3.294-6.33,5.958-10.418,7.988c-4.092,2.031-8.771,3.047-14.042,3.047c-8.73,0-15.662-2.373-20.795-7.123
				c-5.135-4.748-7.701-11.214-7.701-19.396c0-8.345,3.349-14.796,10.048-19.354c6.698-4.557,16.525-6.835,29.484-6.835h12.27v-8.73
				c0-4.283-1.234-7.604-3.705-9.965c-2.471-2.36-6.123-3.541-10.953-3.541c-2.746,0-5.189,0.316-7.331,0.947
				c-2.141,0.632-3.871,1.387-5.188,2.265l-1.565,9.553h-18.119l0.083-19.766c4.392-2.965,9.43-5.462,15.112-7.495
				c5.683-2.03,11.873-3.047,18.572-3.047c11.035,0,19.998,2.705,26.889,8.112c6.891,5.409,10.336,13.109,10.336,23.101v36.814
				c0,1.373,0.014,2.663,0.041,3.87c0.027,1.208,0.123,2.361,0.289,3.459l7.33,0.988v14.413H886.999z M866.161,232.749
				c3.625,0,6.918-0.781,9.883-2.347s5.271-3.527,6.918-5.889v-13.589h-12.27c-5.107,0-8.979,1.194-11.613,3.583
				c-2.635,2.388-3.953,5.258-3.953,8.606c0,3.02,0.974,5.381,2.924,7.082C859.998,231.899,862.702,232.749,866.161,232.749z"/>
			<path fill="#FFFFFF" d="M926.211,234.396l11.612-2.471v-55.261l-12.848-2.471v-14.495h36.896v72.227l11.53,2.471v14.413h-47.19
				V234.396z M961.872,138.369h-24.048v-18.036h24.048V138.369z"/>
			<path fill="#FFFFFF" d="M1058.078,190.336h-16.142l-2.553-11.118c-1.647-1.318-3.721-2.416-6.219-3.294
				c-2.499-0.877-5.258-1.317-8.276-1.317c-4.229,0-7.577,0.947-10.048,2.841c-2.471,1.894-3.706,4.27-3.706,7.124
				c0,2.691,1.181,4.929,3.542,6.712c2.359,1.785,7.082,3.364,14.165,4.735c11.036,2.197,19.216,5.423,24.542,9.677
				c5.325,4.256,7.988,10.117,7.988,17.583c0,8.018-3.445,14.564-10.335,19.643c-6.892,5.078-15.965,7.617-27.219,7.617
				c-6.864,0-13.165-1.002-18.901-3.006c-5.738-2.004-10.83-4.871-15.277-8.605l-0.247-20.014h16.801l3.295,11.613
				c1.427,1.208,3.376,2.1,5.847,2.676s5.051,0.865,7.742,0.865c4.886,0,8.605-0.878,11.159-2.636
				c2.553-1.757,3.829-4.145,3.829-7.165c0-2.635-1.29-4.913-3.87-6.836c-2.582-1.921-7.33-3.623-14.248-5.105
				c-10.487-2.141-18.407-5.312-23.76-9.512c-5.354-4.2-8.03-9.924-8.03-17.171c0-7.466,3.074-13.904,9.225-19.312
				c6.148-5.407,14.906-8.112,26.271-8.112c6.918,0,13.465,0.934,19.642,2.8c6.177,1.867,11.021,4.255,14.536,7.165
				L1058.078,190.336z"/>
			<path fill="#FFFFFF" d="M1148.929,190.336h-16.142l-2.553-11.118c-1.647-1.318-3.721-2.416-6.219-3.294
				c-2.499-0.877-5.258-1.317-8.276-1.317c-4.229,0-7.577,0.947-10.048,2.841c-2.471,1.894-3.706,4.27-3.706,7.124
				c0,2.691,1.181,4.929,3.542,6.712c2.359,1.785,7.082,3.364,14.165,4.735c11.036,2.197,19.216,5.423,24.542,9.677
				c5.325,4.256,7.988,10.117,7.988,17.583c0,8.018-3.445,14.564-10.335,19.643c-6.892,5.078-15.965,7.617-27.219,7.617
				c-6.864,0-13.165-1.002-18.901-3.006c-5.738-2.004-10.83-4.871-15.277-8.605l-0.247-20.014h16.801l3.295,11.613
				c1.427,1.208,3.376,2.1,5.847,2.676s5.051,0.865,7.742,0.865c4.886,0,8.605-0.878,11.159-2.636
				c2.553-1.757,3.829-4.145,3.829-7.165c0-2.635-1.29-4.913-3.87-6.836c-2.582-1.921-7.33-3.623-14.248-5.105
				c-10.487-2.141-18.407-5.312-23.76-9.512c-5.354-4.2-8.03-9.924-8.03-17.171c0-7.466,3.074-13.904,9.225-19.312
				c6.148-5.407,14.906-8.112,26.271-8.112c6.918,0,13.465,0.934,19.642,2.8c6.177,1.867,11.021,4.255,14.536,7.165
				L1148.929,190.336z"/>
			<path fill="#FFFFFF" d="M1209.721,250.538c-12.848,0-23.115-4.117-30.802-12.354c-7.688-8.235-11.53-18.694-11.53-31.377v-3.295
				c0-13.231,3.637-24.13,10.912-32.695c7.274-8.565,17.034-12.819,29.278-12.765c12.024,0,21.357,3.624,28.001,10.871
				c6.643,7.247,9.965,17.048,9.965,29.401v13.094h-53.202l-0.164,0.494c0.438,5.876,2.4,10.707,5.888,14.495
				c3.486,3.788,8.222,5.683,14.207,5.683c5.325,0,9.745-0.535,13.26-1.605c3.513-1.071,7.356-2.76,11.529-5.065l6.506,14.824
				c-3.679,2.911-8.441,5.353-14.288,7.329C1223.433,249.55,1216.913,250.538,1209.721,250.538z M1207.58,176.583
				c-4.447,0-7.962,1.702-10.542,5.106c-2.581,3.405-4.173,7.879-4.776,13.424l0.247,0.412h29.483v-2.141
				c0-5.106-1.194-9.183-3.582-12.23C1216.021,178.106,1212.411,176.583,1207.58,176.583z"/>
			<path fill="#FFFFFF" d="M1323.303,237.526c-2.855,4.173-6.383,7.385-10.583,9.636s-8.99,3.376-14.371,3.376
				c-9.389,0-16.746-3.006-22.071-9.018c-5.326-6.012-7.988-15.359-7.988-28.043v-36.813l-9.801-2.471v-14.495h9.801h24.048v53.944
				c0,6.479,1.083,11.131,3.253,13.959c2.168,2.828,5.395,4.241,9.677,4.241c3.789,0,7.068-0.618,9.842-1.853
				c2.771-1.236,5.037-3.007,6.795-5.312v-48.014l-10.542-2.471v-14.495h10.542h24.048v72.227l10.788,2.471v14.413h-31.872
				L1323.303,237.526z"/>
			<path fill="#FFFFFF" d="M1372.071,234.396l11.53-2.471v-55.261l-12.766-2.471v-14.495h35.167l1.07,13.012
				c2.086-4.612,4.776-8.207,8.071-10.789c3.294-2.58,7.109-3.871,11.447-3.871c1.263,0,2.594,0.096,3.994,0.288
				c1.4,0.193,2.565,0.426,3.5,0.7l-2.553,21.907l-9.883-0.247c-3.515,0-6.424,0.687-8.729,2.059
				c-2.307,1.373-4.064,3.322-5.271,5.847v43.319l11.53,2.471v14.413h-47.108V234.396z"/>
		</g>
	</g>
</g>
</svg>
